<?xml version="1.0" standalone="no"?>
<!DOCTYPE svg PUBLIC "-//W3C//DTD SVG 20010904//EN"
 "http://www.w3.org/TR/2001/REC-SVG-20010904/DTD/svg10.dtd">
<svg version="1.0" xmlns="http://www.w3.org/2000/svg"
 width="512.000000pt" height="512.000000pt" viewBox="0 0 512.000000 512.000000"
 preserveAspectRatio="xMidYMid meet">
<metadata>
Created by potrace 1.14, written by Peter Selinger 2001-2017
</metadata>
<g transform="translate(0.000000,512.000000) scale(0.100000,-0.100000)"
fill="#000000" stroke="none">
<path d="M2332 5109 c-132 -12 -266 -36 -417 -74 -314 -80 -630 -233 -904
-438 -124 -92 -396 -364 -488 -488 -151 -201 -289 -456 -371 -684 -116 -320
-168 -693 -144 -1028 25 -359 102 -644 257 -962 136 -279 260 -450 490 -680
230 -230 401 -354 680 -490 318 -155 603 -232 962 -257 335 -24 708 28 1028
144 228 82 483 220 684 371 124 92 396 364 488 488 151 201 289 456 371 684
116 320 168 693 144 1027 -25 360 -102 645 -257 963 -136 279 -260 450 -490
680 -230 231 -401 354 -680 490 -182 89 -308 136 -480 180 -296 76 -583 100
-873 74z m558 -2544 l0 -975 -135 0 -135 0 0 66 0 66 -45 -40 c-185 -163 -507
-145 -686 39 -64 64 -119 166 -146 269 -25 93 -25 327 0 433 59 251 245 447
477 501 81 20 268 21 338 2 l52 -13 0 313 0 314 140 0 140 0 0 -975z m1483
791 c59 -14 111 -27 116 -30 4 -3 -1 -60 -12 -126 -17 -103 -23 -120 -36 -114
-189 81 -399 102 -561 57 -189 -52 -327 -208 -382 -431 -30 -123 -30 -322 1
-447 30 -125 80 -222 152 -299 103 -110 205 -160 355 -172 130 -10 349 33 442
86 l32 19 0 -118 0 -119 -72 -26 c-225 -80 -472 -86 -676 -17 -109 38 -180 81
-270 166 -168 158 -255 361 -269 626 -24 473 210 844 599 948 110 30 110 30
298 26 144 -3 194 -8 283 -29z m-2713 -91 l0 -105 -375 0 -375 0 0 -285 0
-285 280 0 280 0 0 -105 0 -105 -280 0 -280 0 0 -395 0 -395 -140 0 -140 0 0
890 0 890 515 0 515 0 0 -105z"/>
<path d="M2250 2719 c-108 -43 -195 -163 -227 -312 -22 -105 -13 -330 16 -413
44 -124 135 -192 270 -201 85 -6 161 14 248 65 l48 28 3 402 2 401 -42 22
c-35 18 -64 23 -153 26 -94 3 -118 0 -165 -18z"/>
</g>
</svg>
